<svg xmlns="http://www.w3.org/2000/svg" width="700" height="708" viewBox="0 0 700 708" fill="none"><path d="M422.715 172.641C421.76 182.19 421.044 191.499 420.567 200.571C420.328 209.642 420.208 216.565 420.208 221.339C420.208 226.829 420.328 232.081 420.567 237.094C420.805 242.107 421.044 243.882 421.283 247.463H410.525C408.376 230.037 405.392 218.952 401.572 209.164C397.991 199.138 392.5 191.977 385.099 187.68C377.698 183.144 365.814 180.877 351.967 180.877H295.16C287.52 180.877 281.671 181.593 277.612 183.025C273.793 184.219 271.167 186.845 269.734 190.903C268.302 194.722 267.585 200.809 267.585 209.164V387.484C267.585 396.317 268.54 403.001 270.45 407.537C272.36 411.833 275.941 414.698 281.193 416.13C286.446 417.563 305.553 418.398 315.819 418.637V424.895C309.373 424.418 289.669 424.179 279.403 424.179C269.137 423.941 257.253 423.821 246.271 423.821C236.721 423.821 225.008 423.941 216.175 424.179C207.58 424.179 190.211 424.418 184.243 424.895V418.995C192.36 418.517 208.535 417.563 212.594 416.13C216.652 414.698 219.278 411.833 220.472 407.537C221.904 403.24 222.621 396.794 222.621 388.201V210.597C222.621 201.764 221.904 195.319 220.472 191.261C219.278 186.964 216.533 184.099 212.236 182.667C208.177 180.996 192.121 178.78 184.243 178.542V172.641C193.554 172.88 213.31 173.118 223.337 173.357C233.603 173.357 247.412 173.477 257.2 173.715C267.227 173.715 276.538 173.715 285.133 173.715C293.727 173.715 338.598 173.715 344.089 173.715C355.071 173.715 367.485 173.715 381.331 173.715C395.417 173.477 411.733 173.118 422.715 172.641ZM347.75 297.966C347.75 297.966 347.75 299.16 347.75 301.547C347.75 303.934 347.75 305.128 347.75 305.128H256.842C256.842 305.128 256.842 303.934 256.842 301.547C256.842 299.16 256.842 297.966 256.842 297.966H347.75ZM357.792 250.701C356.837 264.308 356.36 274.692 356.36 281.853C356.599 289.015 356.718 295.579 356.718 301.547C356.718 307.515 356.837 314.08 357.076 321.241C357.315 328.403 357.912 338.787 358.867 352.393H348.108C347.154 344.516 345.721 336.996 343.811 329.835C341.901 322.435 338.44 316.467 333.426 311.931C328.413 307.396 320.893 305.128 310.866 305.128V297.966C318.505 297.966 324.474 296.415 328.771 293.311C333.307 290.208 336.769 286.15 339.156 281.137C341.543 276.124 343.214 270.992 344.169 265.74C345.363 260.249 346.318 255.236 347.034 250.701H357.792Z" fill="white"></path><path d="M578.762 308.61C570.776 309.263 563.42 313.298 556.696 318.196C549.971 323.094 543.666 333.008 537.782 345.416L428.081 556.021H421.145L308.923 339.048C302.198 326.314 295.473 318.641 288.748 316.029C288.605 315.963 288.462 315.9 288.32 315.835H315.1C325.542 315.835 334.637 322.959 337.137 333.096L344.229 361.855H364.182L441.32 514.414L522.65 357.17C530.001 342.675 534.538 322.338 516.346 314.486C509.2 311.221 501.845 310.523 486.714 309.87V302.596C517.471 303.924 548.025 304.089 578.762 302.596V308.61Z" fill="white"></path><path d="M382.687 309.431C377.374 309.747 369.979 310.29 365.034 311.059C364.161 311.166 363.32 311.3 362.512 311.458V302.687C369.509 302.469 376.315 302.205 382.687 301.918V309.431Z" fill="white"></path><path d="M85.6872 174.787C86.7086 173.01 87.1625 171.774 87.0238 171.055C86.8851 170.349 85.9268 169.328 84.1237 168.017L66.0546 154.803C64.5793 153.719 63.4444 153.24 62.6627 153.353C61.8809 153.467 60.8721 154.261 59.6238 155.724L58.8546 155.156L75.1207 132.928L81.1983 137.152L80.3535 138.312C78.2352 137.202 76.6338 136.862 75.562 137.278C74.4776 137.694 73.0906 139.068 71.3883 141.388L67.202 147.112C66.7985 147.667 66.622 148.096 66.6976 148.398C66.7733 148.688 67.0885 149.041 67.6433 149.457L76.949 156.266L81.3749 150.214C82.6736 148.436 83.241 147.112 83.0771 146.23C82.9132 145.36 82.1314 144.187 80.7444 142.699L81.4631 141.716L91.0966 148.764L90.3779 149.747C88.537 148.877 87.1752 148.499 86.2925 148.6C85.4098 148.701 84.3254 149.647 83.0393 151.412L78.6134 157.464L87.7426 164.146C89.2683 165.268 90.4157 165.747 91.1849 165.583C91.9541 165.432 92.9754 164.6 94.249 163.112L95.0181 163.679L86.4816 175.355L85.7125 174.787H85.6872Z" fill="white"></path><path d="M114.058 138.085C115.332 136.547 115.937 135.399 115.874 134.643C115.798 133.886 115.016 132.752 113.503 131.226L97.6787 115.39C96.3926 114.104 95.3586 113.461 94.5768 113.448C93.795 113.448 92.6854 114.041 91.2606 115.251L90.5797 114.571L100.705 104.459C102.811 102.353 104.841 100.865 106.77 99.9955C110.452 98.3438 113.642 98.8734 116.34 101.584C118.156 103.4 118.963 105.392 118.749 107.548C118.534 109.704 117.564 111.961 115.836 114.293L132.644 116.046C133.678 116.147 134.548 116.096 135.28 115.894C135.998 115.693 136.768 115.264 137.562 114.608L138.243 115.289L132.354 121.177L111.952 119.046L110.439 120.736L117.639 127.948C118.988 129.297 120.048 129.953 120.829 129.902C121.599 129.852 122.733 129.196 124.234 127.935L124.915 128.616L114.752 138.766L114.071 138.085H114.058ZM113.894 112.919C115.042 110.183 114.512 107.724 112.318 105.518C110.2 103.4 107.892 102.832 105.383 103.791C104.034 104.308 102.596 105.329 101.058 106.854C100.024 107.888 99.4566 108.594 99.381 108.973C99.2927 109.351 99.5323 109.817 100.074 110.359L109.065 119.362C111.599 116.638 113.213 114.482 113.894 112.906V112.919Z" fill="white"></path><path d="M152.063 102.416C153.487 101.143 154.282 100.147 154.458 99.4281C154.635 98.7095 154.156 97.5621 153.021 95.9987L139.554 77.3638C138.482 75.8761 137.549 75.0691 136.768 74.9304C135.986 74.8044 134.775 75.2456 133.149 76.2543L132.581 75.4726L154.837 59.3845L159.313 65.2726L158.254 66.0417C156.564 64.453 155.165 63.6461 154.068 63.6083C152.971 63.5831 151.193 64.453 148.734 66.2182L143.034 70.3411C142.417 70.7824 142.114 71.1606 142.114 71.4632C142.114 71.7658 142.316 72.1819 142.707 72.7366L149.465 82.0919L155.934 77.4143C157.724 76.1282 158.67 75.0313 158.783 74.1487C158.897 73.2662 158.519 71.9045 157.649 70.0763L158.632 69.3702L165.63 79.0407L164.647 79.7468C163.159 78.3473 161.986 77.5656 161.116 77.4016C160.246 77.2377 158.922 77.7925 157.144 79.0659L150.676 83.7436L158.178 94.1201C158.783 94.9522 159.401 95.2548 160.032 95.0279C160.662 94.8009 162.289 93.7292 164.924 91.838C167.761 89.7829 169.64 87.9547 170.548 86.3661C171.456 84.7648 171.582 82.3819 170.926 79.2172L172.099 78.3725L175.314 86.82L152.668 103.185L152.1 102.404L152.063 102.416Z" fill="white"></path><path d="M192.879 74.5648C194.48 73.5435 195.426 72.6988 195.729 72.018C196.031 71.3371 195.741 70.1267 194.884 68.3868L184.632 47.7976C183.788 46.1081 183.006 45.1499 182.262 44.9104C181.531 44.6708 180.27 44.923 178.492 45.6542L178.063 44.7969L190.534 38.5937C194.733 36.5007 198.641 35.429 202.235 35.366C208.716 35.2399 213.546 38.3793 216.736 44.7843C217.883 47.0916 218.501 49.5123 218.602 52.0592C218.69 54.606 218.148 57.0646 216.963 59.4476C216.206 60.948 215.298 62.2592 214.239 63.3687C212.31 65.4239 209.624 67.3025 206.169 69.0172L193.308 75.4222L192.879 74.5648ZM201.605 68.702C202.096 68.765 202.916 68.5003 204.076 67.9203C207.695 66.1173 210.305 63.9235 211.932 61.3262C214.428 57.342 214.34 52.6896 211.692 47.3689C209.321 42.6157 206.068 39.7788 201.92 38.8584C198.364 38.0641 194.506 38.7071 190.332 40.7875C189.298 41.3044 188.642 41.7709 188.39 42.1744C188.138 42.5904 188.201 43.1704 188.579 43.9395L200.293 67.479C200.672 68.2355 201.1 68.639 201.592 68.702H201.605Z" fill="white"></path><path d="M247.427 15.5585L247.704 16.4789C246.532 16.7941 245.687 17.1345 245.17 17.5128C244.653 17.891 244.489 18.4332 244.703 19.1266C244.766 19.341 244.892 19.5805 245.081 19.8705C245.271 20.1605 245.611 20.5135 246.103 20.9296L256.569 29.4653L260.465 16.4915C260.616 15.9367 260.692 15.4955 260.692 15.1676C260.692 14.8398 260.667 14.6003 260.629 14.449C260.414 13.7429 259.897 13.3773 259.078 13.3773C258.586 13.3773 257.779 13.516 256.682 13.8186L256.405 12.8982L267.236 9.69569L267.513 10.6161C266.53 10.9565 265.723 11.5239 265.092 12.3056C264.122 13.5286 263.214 15.5207 262.369 18.2945L258.359 31.6465L261.209 41.2918C261.776 43.2082 262.445 44.3178 263.201 44.6078C263.958 44.8977 265.446 44.7843 267.64 44.2547L267.917 45.1751L252.786 49.651L252.508 48.7306C254.715 47.9363 256.001 47.1924 256.392 46.4864C256.77 45.7929 256.644 44.3556 256.001 42.1996L253.454 33.6008L244.148 26.0107C240.933 23.4008 238.739 21.7617 237.566 21.1061C236.394 20.4505 235.145 20.274 233.834 20.5892L233.557 19.6688L247.427 15.5585Z" fill="white"></path><path d="M336.726 0.542152L336.751 1.42472C335.465 1.47516 334.582 1.58863 334.116 1.75254C333.296 2.04253 332.905 2.60989 332.918 3.45464C332.918 3.88332 333.094 4.47591 333.41 5.2324C333.725 5.98889 334.305 7.24971 335.15 9.01485L343.699 26.7924L350.546 7.12362C350.848 6.25366 351.075 5.52239 351.227 4.91719C351.378 4.312 351.454 3.82028 351.441 3.45464C351.416 2.44599 350.974 1.77775 350.104 1.43733C349.6 1.24821 348.768 1.14734 347.608 1.14734L347.583 0.264772L358.149 0L358.174 0.882573C357.09 1.05909 356.283 1.37429 355.779 1.82819C355.009 2.50903 354.253 3.8455 353.534 5.8502L342.829 35.2147L342.047 35.2399L328.555 7.16145C327.42 4.7785 326.512 3.30334 325.857 2.73598C325.188 2.156 324.243 1.8534 322.994 1.80297L322.969 0.920398L336.739 0.567368L336.726 0.542152Z" fill="white"></path><path d="M378.879 34.786C380.985 34.8742 382.372 34.7229 383.053 34.3195C383.721 33.916 384.175 32.7308 384.402 30.7514L387.024 7.90533C387.239 6.0141 387.075 4.76589 386.52 4.14809C385.965 3.53029 384.641 3.05118 382.573 2.71076L382.687 1.75254L397.881 3.50508L397.768 4.4633C395.662 4.32461 394.275 4.48851 393.594 4.96762C392.913 5.43413 392.459 6.6193 392.245 8.51052L389.622 31.3566C389.395 33.336 389.559 34.5969 390.126 35.139C390.694 35.6812 392.005 36.1477 394.086 36.5385L393.972 37.4967L378.778 35.7442L378.891 34.786H378.879Z" fill="white"></path><path d="M413.302 39.3754C415.421 39.7032 416.871 39.5897 417.652 39.0223C418.422 38.455 419.166 36.8537 419.859 34.2186L425.647 12.1921L425.18 11.2087C424.676 10.1496 424.184 9.45614 423.73 9.11572C423.276 8.7753 422.532 8.46009 421.511 8.1575L421.75 7.22449L430.287 9.46875L443.3 38.455L447.663 21.8374C448.381 19.1014 448.444 17.2228 447.839 16.1763C447.448 15.4955 446.351 14.8398 444.548 14.1968L444.788 13.2764L456.527 16.3654L456.287 17.2984C454.333 16.9958 452.933 17.1219 452.114 17.6893C451.281 18.2567 450.525 19.8453 449.844 22.4678L442.921 48.7811L442.064 48.5541L427.147 15.3316L422.04 34.7986C421.322 37.5346 421.259 39.4132 421.826 40.4597C422.204 41.1279 423.276 41.8087 425.029 42.477L424.789 43.41L413.05 40.321L413.29 39.388L413.302 39.3754Z" fill="white"></path><path d="M465.669 55.8164L466.072 54.9465C467.346 55.3625 468.455 55.3247 469.414 54.833C470.372 54.3413 472.377 52.7022 475.441 49.9158L495.83 31.3692L496.763 31.7978L496.221 63.81C496.196 65.9282 496.309 67.3151 496.587 67.9455C496.864 68.5759 497.507 69.2189 498.541 69.8872L498.138 70.7571L486.197 65.26L486.6 64.39C488.025 64.8943 488.983 65.1591 489.462 65.1591C489.942 65.1591 490.332 64.8313 490.648 64.1378C490.749 63.9109 490.862 63.4696 490.976 62.8266C491.089 62.1836 491.152 61.4649 491.177 60.7084L491.379 55.3247L478.997 49.6384C476.361 52.1475 474.773 53.6856 474.23 54.253C473.676 54.8204 473.31 55.2995 473.133 55.703C472.768 56.4973 472.843 57.1907 473.335 57.7833C473.65 58.149 474.331 58.6281 475.39 59.2206L474.987 60.0906L465.681 55.8164H465.669ZM491.442 53.0552L492.01 37.648L480.649 48.1002L491.442 53.0679V53.0552Z" fill="white"></path><path d="M553.921 65.9786C555.195 67.5294 555.951 68.3994 556.191 68.5633C556.796 68.9794 557.313 69.1685 557.729 69.1055C558.145 69.0424 558.599 68.8533 559.091 68.5381L560.024 69.1811L554.173 78.3599L553.202 77.6916C553.757 75.0313 553.921 72.8627 553.682 71.211C553.228 68.2859 551.664 65.8904 548.978 64.037C546.255 62.1584 543.14 61.5279 539.635 62.171C536.142 62.814 532.75 65.5121 529.472 70.2528C526.761 74.174 525.689 77.9438 526.231 81.575C526.773 85.2061 528.564 88.0556 531.59 90.1485C532.107 90.5016 532.738 90.8672 533.494 91.258C534.251 91.6363 535.02 91.9389 535.776 92.1658C537.012 92.5315 537.844 92.6828 538.26 92.6071C538.677 92.5315 539.042 92.2667 539.37 91.8002L544.048 85.017C545.183 83.3779 545.662 82.1928 545.473 81.4615C545.284 80.7428 544.452 79.7846 542.951 78.612L543.493 77.8177L554.337 85.307L553.795 86.1013C552.698 85.4457 551.878 85.1305 551.336 85.1683C550.454 85.2061 549.533 85.9248 548.575 87.3117L542.8 95.6835C542.459 96.1878 540.77 95.9987 537.756 95.1414C534.742 94.284 532.095 93.0736 529.837 91.5228C525.689 88.6608 523.016 85.0296 521.843 80.6293C520.544 75.7878 521.452 71.1102 524.554 66.609C527.29 62.6501 530.884 60.1158 535.348 59.0315C540.253 57.8211 544.981 58.7794 549.546 61.9314C551.198 63.0661 552.66 64.4152 553.934 65.9786H553.921Z" fill="white"></path><path d="M559.217 111.822C560.768 113.07 561.928 113.663 562.685 113.587C563.441 113.511 564.563 112.705 566.064 111.166L581.687 95.1288C582.96 93.8301 583.591 92.7836 583.591 92.0019C583.591 91.2202 582.973 90.1233 581.737 88.7112L582.406 88.0303L592.657 98.016C594.788 100.096 596.301 102.101 597.196 104.018C598.899 107.674 598.419 110.864 595.746 113.612C593.956 115.453 591.976 116.285 589.82 116.109C587.664 115.932 585.394 114.987 583.023 113.297L581.498 130.129C581.41 131.163 581.473 132.033 581.687 132.764C581.901 133.495 582.343 134.239 583.011 135.021L582.343 135.715L576.378 129.902L578.219 109.464L576.504 107.976L569.393 115.277C568.056 116.651 567.426 117.723 567.476 118.492C567.539 119.261 568.208 120.396 569.494 121.871L568.825 122.552L558.536 112.528L559.204 111.847L559.217 111.822ZM584.385 111.305C587.134 112.415 589.593 111.847 591.762 109.628C593.842 107.485 594.384 105.165 593.388 102.668C592.859 101.332 591.812 99.9073 590.261 98.3943C589.215 97.373 588.496 96.8183 588.118 96.7426C587.739 96.667 587.273 96.9065 586.743 97.4487L577.866 106.564C580.628 109.061 582.797 110.637 584.385 111.292V111.305Z" fill="white"></path><path d="M595.418 149.306C596.717 150.706 597.726 151.5 598.445 151.664C599.163 151.828 600.298 151.336 601.862 150.176L620.309 136.446C621.785 135.349 622.579 134.416 622.692 133.634C622.818 132.852 622.352 131.655 621.318 130.028L622.087 129.461L638.479 151.487L632.654 156.039L631.872 154.992C633.435 153.278 634.23 151.878 634.242 150.769C634.255 149.659 633.36 147.907 631.557 145.473L627.358 139.825C626.904 139.22 626.526 138.917 626.223 138.917C625.92 138.917 625.504 139.119 624.962 139.522L615.707 146.406L620.473 152.799C621.784 154.564 622.894 155.497 623.777 155.598C624.659 155.698 626.009 155.295 627.837 154.4L628.556 155.371L618.973 162.494L618.254 161.523C619.628 160.023 620.397 158.825 620.549 157.955C620.7 157.085 620.133 155.774 618.821 154.009L614.055 147.617L603.791 155.257C602.971 155.875 602.681 156.493 602.921 157.123C603.161 157.754 604.245 159.367 606.174 161.965C608.267 164.776 610.121 166.617 611.735 167.5C613.349 168.382 615.732 168.471 618.884 167.79L619.742 168.95L611.331 172.278L594.649 149.861L595.418 149.294V149.306Z" fill="white"></path><path d="M34.1908 382.028C33.7495 383.97 33.5352 385.054 33.5478 385.281C33.573 385.76 33.7243 386.201 34.0143 386.605C34.2917 387.021 34.7204 387.286 35.2879 387.424L35.3383 388.483L24.0656 389.517L24.0025 388.357C26.2092 387.576 27.9745 386.605 29.2984 385.457C31.7825 383.264 32.9299 380.427 32.7534 376.947C32.5769 373.429 31.0385 370.63 28.151 368.525C25.2508 366.432 21.3672 365.511 16.5 365.751C12.0111 365.978 8.49308 367.327 5.93339 369.811C3.37371 372.294 2.18843 375.333 2.36496 378.939C2.49105 381.536 3.235 383.907 4.59681 386.037C5.36598 387.26 6.50081 388.584 8.00132 390.022L7.11867 391.005C5.65599 389.959 4.34462 388.647 3.19718 387.046C1.25534 384.323 0.19616 381.322 0.0322395 378.031C-0.245165 372.635 1.26795 368.26 4.55898 364.906C7.59782 361.817 11.5193 360.153 16.2856 359.913C21.178 359.661 25.3643 361.01 28.8445 363.935C32.4886 367.012 34.4556 371.16 34.7204 376.38C34.8087 378.195 34.6322 380.074 34.1908 382.015V382.028Z" fill="white"></path><path d="M5.51729 414.948C6.08471 416.726 6.65212 417.835 7.21954 418.277C7.78696 418.718 8.99745 418.756 10.851 418.365L32.7786 413.813C34.5313 413.448 35.6157 412.943 36.0444 412.313C36.4731 411.67 36.5614 410.422 36.3092 408.568L37.2297 408.379L40.1172 422.286L39.2094 422.475C38.7302 420.685 38.188 419.525 37.5575 419.008C36.9271 418.491 35.8048 418.403 34.1656 418.743L10.4854 423.66C9.94315 423.774 9.52705 423.95 9.24964 424.202C8.97224 424.455 8.85875 424.896 8.90919 425.539C8.93441 425.917 8.98485 426.321 9.0605 426.724C9.13616 427.127 9.27486 427.909 9.51444 429.031C10.4223 433.419 11.4058 436.306 12.4398 437.693C13.4864 439.08 15.6426 440.202 18.9084 441.022L19.1732 442.27L10.1323 441.627L4.63464 415.112L5.55511 414.923L5.51729 414.948Z" fill="white"></path><path d="M17.887 465.255C18.694 467.146 19.4127 468.293 20.0558 468.722C20.6863 469.138 21.922 469.037 23.763 468.407L44.9214 461.081C46.6741 460.476 47.6954 459.795 47.998 459.051C48.3007 458.308 48.162 456.946 47.5945 454.979L48.4772 454.676L53.3444 468.747L52.4617 469.05C51.6926 467.146 50.9612 465.999 50.2677 465.595C49.5616 465.192 48.3385 465.292 46.5858 465.91L25.4274 473.236C23.599 473.866 22.5525 474.547 22.3129 475.278C22.0733 476.009 22.212 477.358 22.7542 479.338L21.8716 479.641L17.0044 465.57L17.887 465.267V465.255ZM61.1621 465.961C60.7839 465.809 60.3552 465.557 59.876 465.179L52.7265 459.467L52.0582 457.538L61.5152 462.09C61.8431 462.254 62.2087 462.468 62.5996 462.758C62.9905 463.036 63.2553 463.389 63.4066 463.805C63.5453 464.208 63.5327 464.624 63.3562 465.053C63.1796 465.482 62.8644 465.784 62.3979 465.935C61.9439 466.087 61.5278 466.099 61.1495 465.948L61.1621 465.961Z" fill="white"></path><path d="M31.0007 500.532C32.1355 502.285 33.1569 503.268 34.0774 503.457C34.9978 503.647 36.6371 503.155 38.995 501.944L58.7664 491.896L59.1825 490.912C59.6238 489.866 59.813 489.059 59.7625 488.504C59.7121 487.949 59.4599 487.205 59.0312 486.272L59.8634 485.844L63.7597 493.497L51.0999 521.727L66.0041 514.149C68.4503 512.901 69.8626 511.728 70.2408 510.619C70.4804 509.888 70.2409 508.665 69.5473 506.937L70.3796 506.521L75.7385 517.062L74.9063 517.49C73.8597 515.876 72.8636 514.943 71.9179 514.704C70.9722 514.464 69.3204 514.943 66.975 516.141L43.3578 528.157L42.9669 527.388L57.4676 495.035L40.0037 503.911C37.5575 505.16 36.1327 506.332 35.7544 507.429C35.5148 508.135 35.7166 509.345 36.3596 511.06L35.5274 511.489L30.1685 500.948L31.0007 500.52V500.532Z" fill="white"></path><path d="M59.0816 550.839C60.3678 552.44 61.3765 553.348 62.1078 553.588C62.8392 553.815 63.9992 553.386 65.588 552.276L83.9724 539.504C85.4981 538.445 86.2925 537.525 86.3934 536.718C86.4816 535.911 85.9899 534.65 84.9055 532.91L85.6746 532.381L94.1733 544.611L93.4041 545.14C92.1558 543.514 91.1345 542.606 90.3527 542.404C89.5709 542.215 88.4109 542.644 86.8977 543.703L68.5134 556.475C66.9246 557.584 66.105 558.517 66.0672 559.274C66.0293 560.043 66.5337 561.304 67.5803 563.069L66.8111 563.598L58.3124 551.369L59.0816 550.839Z" fill="white"></path><path d="M120.892 576.938C121.788 578.716 122.305 579.699 122.456 579.863C122.771 580.216 123.175 580.456 123.654 580.594C124.133 580.733 124.637 580.67 125.154 580.418L125.86 581.199L117.816 589.155L117.034 588.298C118.244 586.293 118.988 584.427 119.278 582.7C119.808 579.434 118.888 576.509 116.542 573.925C114.172 571.327 111.196 570.13 107.64 570.356C104.072 570.583 100.491 572.336 96.8717 575.627C93.5555 578.653 91.6893 581.931 91.2984 585.474C90.9075 589.017 91.9162 592.118 94.3498 594.778C96.1025 596.708 98.1831 598.057 100.579 598.851C101.953 599.305 103.668 599.62 105.736 599.771L105.673 601.095C103.882 601.221 102.029 601.032 100.138 600.528C96.9095 599.658 94.1859 598.006 91.9667 595.573C88.3226 591.576 86.7086 587.239 87.1247 582.561C87.5156 578.237 89.47 574.467 93.0133 571.252C96.6321 567.948 100.718 566.322 105.257 566.372C110.036 566.435 114.184 568.39 117.702 572.26C118.925 573.609 119.985 575.173 120.88 576.951L120.892 576.938Z" fill="white"></path><path d="M119.329 621.684L119.909 620.953C121.019 621.647 122.078 621.861 123.099 621.621C124.12 621.369 126.403 620.285 129.933 618.356L153.487 605.508L154.269 606.126L146.376 636.285C145.859 638.289 145.657 639.613 145.771 640.281C145.884 640.937 146.351 641.706 147.17 642.564L146.59 643.295L136.553 635.352L137.133 634.62C138.369 635.427 139.214 635.894 139.655 636.02C140.109 636.133 140.563 635.906 141.017 635.339C141.168 635.15 141.37 634.759 141.622 634.166C141.874 633.574 142.101 632.931 142.303 632.2L143.728 627.156L133.325 618.923C130.261 620.688 128.395 621.785 127.752 622.189C127.096 622.605 126.642 622.97 126.377 623.298C125.848 623.966 125.76 624.635 126.087 625.316C126.302 625.732 126.831 626.349 127.701 627.156L127.121 627.888L119.304 621.697L119.329 621.684ZM144.346 625.026L148.431 610.577L135.28 617.839L144.346 625.026Z" fill="white"></path><path d="M192.564 670.049C194.316 670.617 195.552 670.793 196.246 670.604C196.939 670.402 197.671 669.444 198.44 667.717L207.531 647.254C208.275 645.577 208.502 644.392 208.224 643.686C207.947 642.98 206.976 642.198 205.324 641.315L205.703 640.458L218.098 645.968C222.271 647.821 225.499 650.078 227.782 652.751C231.892 657.542 232.535 663.115 229.711 669.469C228.689 671.764 227.252 673.731 225.398 675.383C223.545 677.034 221.363 678.156 218.842 678.736C217.24 679.102 215.702 679.228 214.201 679.127C211.465 678.951 208.376 678.106 204.959 676.58L192.173 670.907L192.551 670.049H192.564ZM202.374 672.949C202.639 673.353 203.345 673.807 204.492 674.324C208.086 675.925 211.364 676.517 214.315 676.127C218.854 675.521 222.296 672.571 224.642 667.288C226.735 662.573 226.848 658.362 224.97 654.68C223.356 651.528 220.481 649.019 216.332 647.178C215.298 646.724 214.542 646.523 214.088 646.586C213.621 646.649 213.218 647.065 212.877 647.821L202.475 671.222C202.147 671.966 202.109 672.546 202.361 672.949H202.374Z" fill="white"></path><path d="M246.204 691.635C248.045 691.912 249.293 691.912 249.936 691.597C250.579 691.294 251.147 690.222 251.638 688.394L257.363 666.746C257.817 665.019 257.855 663.821 257.476 663.153C257.098 662.484 256.014 661.841 254.248 661.249L254.488 660.341L280.337 667.187L278.66 674.197L277.424 673.87C277.576 671.613 277.323 670.062 276.668 669.217C276.012 668.373 274.259 667.566 271.41 666.809L264.79 665.057C264.071 664.867 263.605 664.867 263.378 665.057C263.151 665.246 262.949 665.649 262.785 666.28L259.91 677.135L267.413 679.127C269.493 679.682 270.893 679.72 271.624 679.253C272.355 678.787 273.15 677.665 273.995 675.887L275.129 676.19L272.154 687.423L271.019 687.121C271.158 685.141 271.019 683.767 270.603 683.011C270.199 682.254 268.964 681.598 266.896 681.056L259.393 679.064L256.203 691.105C255.951 692.076 256.102 692.719 256.669 693.059C257.237 693.4 259.04 693.967 262.079 694.774C265.382 695.644 267.904 695.934 269.67 695.631C271.435 695.329 273.301 693.955 275.293 691.509L276.643 691.862L272.255 699.502L245.952 692.542L246.191 691.647L246.204 691.635Z" fill="white"></path><path d="M330.32 707.029C332.338 706.916 333.649 706.601 334.242 706.084C334.835 705.567 335.125 704.381 335.125 702.503L335.074 680.111C335.074 678.257 334.771 677.072 334.179 676.543C333.586 676.013 332.275 675.698 330.257 675.61V674.677L344.355 674.651C348.377 674.651 351.58 675.282 353.95 676.58C356.321 677.866 357.506 680.098 357.519 683.263C357.519 685.646 356.699 687.449 355.047 688.684C354.114 689.39 352.715 689.983 350.848 690.437C353.156 690.992 355.136 691.912 356.775 693.211C358.414 694.509 359.234 696.325 359.246 698.67C359.246 702.604 357.443 705.302 353.812 706.79C351.895 707.559 349.537 707.95 346.738 707.962L330.333 708V707.067L330.32 707.029ZM349.197 688.722C351.327 687.739 352.387 685.961 352.387 683.414C352.387 680.413 351.151 678.383 348.692 677.337C347.33 676.769 345.262 676.48 342.501 676.492C341.454 676.492 340.811 676.593 340.559 676.77C340.32 676.946 340.193 677.438 340.193 678.245L340.219 689.617L345.01 689.529C346.7 689.491 348.1 689.214 349.209 688.709L349.197 688.722ZM350.861 704.596C352.601 703.6 353.458 701.671 353.458 698.834C353.458 696.022 352.437 694.093 350.394 693.059C348.364 692.038 345.767 691.521 342.627 691.534C341.858 691.534 341.366 691.534 341.164 691.534C340.963 691.534 340.647 691.534 340.219 691.509L340.244 704.041C340.244 704.911 340.496 705.466 340.988 705.718C341.48 705.97 342.614 706.096 344.405 706.096C346.977 706.096 349.133 705.592 350.861 704.583V704.596Z" fill="white"></path><path d="M384.112 705.453C386.129 705.062 387.415 704.608 387.958 704.066C388.5 703.524 388.664 702.301 388.437 700.385L385.789 678.156C385.574 676.316 385.133 675.168 384.465 674.714C383.796 674.261 382.447 674.097 380.405 674.248L380.291 673.315L395.082 671.55L395.195 672.483C393.178 672.823 391.892 673.29 391.349 673.895C390.807 674.5 390.656 675.71 390.87 677.551L393.518 699.779C393.745 701.709 394.187 702.869 394.855 703.247C395.51 703.638 396.86 703.776 398.915 703.688L399.028 704.621L384.238 706.386L384.124 705.453H384.112Z" fill="white"></path><path d="M419.909 670.932C422.154 667.276 425.47 664.88 429.846 663.733C434.234 662.585 438.306 663.064 442.051 665.157C446.124 667.427 448.835 671.159 450.197 676.366C451.571 681.649 450.991 686.289 448.457 690.285C446.175 693.866 442.909 696.211 438.634 697.321C434.07 698.519 429.871 697.964 426.063 695.657C422.179 693.299 419.594 689.655 418.295 684.713C416.934 679.518 417.476 674.916 419.922 670.932H419.909ZM429.795 693.841C432.456 695.757 435.242 696.337 438.18 695.568C441.055 694.812 443.199 692.984 444.611 690.059C446.023 687.133 446.049 683.061 444.674 677.816C443.287 672.508 441.244 668.94 438.571 667.112C435.898 665.283 433.137 664.754 430.312 665.485C427.387 666.254 425.243 668.12 423.856 671.096C422.469 674.071 422.457 678.131 423.793 683.263C425.13 688.382 427.135 691.899 429.783 693.828L429.795 693.841Z" fill="white"></path><path d="M476.866 683.477C478.593 682.494 479.589 681.662 479.816 681.006C480.056 680.338 479.741 679.014 478.871 677.022L470.158 657.038C469.439 655.399 468.733 654.44 468.014 654.15C467.295 653.86 466.06 654.037 464.294 654.655L463.916 653.797L488.492 643.08L491.53 649.611L490.244 650.166C489.008 648.199 487.836 647.115 486.714 646.939C485.604 646.762 483.763 647.229 481.191 648.351L474.861 651.112C474.243 651.377 473.89 651.654 473.814 651.944C473.739 652.234 473.814 652.675 474.092 653.293L478.581 663.594L485.276 660.682C487.243 659.824 488.378 658.992 488.655 658.172C488.945 657.353 488.857 655.979 488.416 654.062L489.5 653.596L494.141 664.25L493.056 664.716C491.934 663.077 490.976 662.094 490.181 661.741C489.387 661.4 488.012 661.652 486.058 662.51L479.362 665.422L483.763 675.509C484.494 677.198 485.226 678.169 485.957 678.409C486.676 678.648 487.937 678.459 489.74 677.841L490.106 678.699L477.194 684.322L476.815 683.465L476.866 683.477Z" fill="white"></path><path d="M521.44 662.358C522.902 661.211 523.747 660.303 523.974 659.61C524.201 658.929 523.81 657.782 522.801 656.18L510.974 637.18C510.028 635.667 509.183 634.81 508.439 634.633C507.696 634.456 506.485 634.797 504.833 635.679L504.341 634.885L527.038 620.751L530.985 626.778L529.9 627.459C528.362 625.795 527.063 624.925 526.004 624.811C524.945 624.698 523.155 625.442 520.645 626.992L514.832 630.611C514.202 631.002 513.874 631.342 513.861 631.632C513.836 631.922 514 632.351 514.353 632.906L520.292 642.437L526.887 638.327C528.715 637.192 529.699 636.196 529.863 635.352C530.027 634.507 529.749 633.158 529.03 631.317L530.027 630.699L536.167 640.571L535.171 641.189C533.822 639.739 532.725 638.895 531.893 638.668C531.061 638.441 529.737 638.895 527.933 640.017L521.339 644.114L527.921 654.693C528.45 655.537 529.03 655.878 529.661 655.689C530.291 655.512 531.943 654.579 534.616 652.915C537.516 651.112 539.458 649.46 540.442 647.972C541.425 646.485 541.715 644.177 541.299 641.063L542.485 640.319L545.044 648.742L521.944 663.115L521.452 662.321L521.44 662.358Z" fill="white"></path><path d="M564.816 633.372C566.102 632.023 566.795 630.989 566.909 630.283C567.022 629.577 566.467 628.493 565.244 627.055L550.718 610.022C549.558 608.66 548.6 607.954 547.831 607.878C547.062 607.815 545.927 608.332 544.414 609.442L543.809 608.736L564.16 591.387L568.964 596.758L567.993 597.59C566.228 596.178 564.816 595.497 563.744 595.56C562.672 595.611 561.008 596.607 558.776 598.511L553.556 602.961C552.988 603.44 552.723 603.831 552.749 604.121C552.774 604.411 553.001 604.815 553.417 605.306L560.705 613.855L566.619 608.811C568.258 607.425 569.09 606.29 569.128 605.42C569.166 604.55 568.687 603.264 567.703 601.549L568.598 600.78L576.139 609.631L575.244 610.4C573.693 609.164 572.482 608.496 571.625 608.395C570.767 608.294 569.532 608.938 567.905 610.324L561.991 615.368L570.074 624.849C570.717 625.606 571.347 625.858 571.94 625.58C572.533 625.303 574.033 624.156 576.429 622.1C579.026 619.881 580.703 617.965 581.447 616.351C582.204 614.725 582.141 612.405 581.271 609.391L582.33 608.484L586.113 616.439L565.408 634.091L564.803 633.385L564.816 633.372Z" fill="white"></path><path d="M603.829 598.006C604.875 596.481 605.405 595.358 605.405 594.64C605.405 593.921 604.699 592.938 603.261 591.702L586.239 577.152C584.839 575.955 583.767 575.4 583.023 575.475C582.28 575.538 581.246 576.244 579.922 577.581L579.215 576.976L588.029 566.662C591.005 563.195 594.082 560.736 597.285 559.312C603.047 556.74 608.57 557.71 613.866 562.237C615.77 563.863 617.245 565.805 618.304 568.049C619.351 570.293 619.805 572.714 619.641 575.286C619.54 576.925 619.225 578.438 618.695 579.838C617.75 582.41 616.047 585.121 613.614 587.97L604.522 598.599L603.816 597.994L603.829 598.006ZM609.402 589.433C609.869 589.294 610.499 588.752 611.319 587.794C613.878 584.805 615.392 581.843 615.858 578.892C616.577 574.378 614.723 570.23 610.335 566.473C606.414 563.119 602.417 561.808 598.344 562.552C594.864 563.195 591.648 565.238 588.698 568.692C587.966 569.55 587.563 570.218 587.487 570.684C587.412 571.151 587.702 571.655 588.332 572.197L607.801 588.84C608.419 589.37 608.961 589.571 609.427 589.433H609.402Z" fill="white"></path><path d="M640.106 552.465C641.051 550.675 641.468 549.402 641.342 548.62C641.215 547.851 640.345 546.968 638.744 545.997L619.603 534.398C618.014 533.44 616.842 533.074 616.085 533.301C615.329 533.541 614.37 534.486 613.248 536.163L612.454 535.684L619.754 523.631C621.848 520.188 624.054 517.793 626.387 516.444C628.72 515.095 631.241 515.233 633.952 516.873C635.983 518.108 637.105 519.747 637.294 521.802C637.407 522.962 637.18 524.463 636.613 526.303C638.29 524.614 640.106 523.416 642.073 522.685C644.04 521.954 646.02 522.206 648.024 523.416C651.378 525.459 652.753 528.409 652.122 532.28C651.795 534.322 650.899 536.529 649.449 538.924L640.951 552.945L640.156 552.465H640.106ZM634.293 526.82C634.558 524.488 633.599 522.66 631.418 521.348C628.846 519.785 626.475 519.785 624.306 521.348C623.108 522.218 621.797 523.832 620.36 526.203C619.817 527.098 619.553 527.703 619.59 528.006C619.616 528.308 619.969 528.674 620.662 529.09L630.384 534.991L632.805 530.855C633.65 529.392 634.142 528.056 634.293 526.833V526.82ZM648.718 533.667C648.768 531.662 647.571 529.935 645.15 528.459C642.741 526.997 640.572 526.871 638.631 528.069C636.689 529.266 634.911 531.221 633.284 533.906C632.881 534.562 632.629 534.978 632.528 535.154C632.427 535.331 632.25 535.596 632.011 535.949L642.729 542.442C643.473 542.896 644.078 542.971 644.557 542.682C645.023 542.392 645.73 541.484 646.65 539.958C647.987 537.752 648.667 535.659 648.718 533.654V533.667Z" fill="white"></path><path d="M668.086 504.63L667.216 504.277C667.556 503.016 667.468 501.944 666.938 501.024C666.409 500.104 664.719 498.238 661.869 495.401L642.842 476.476L643.22 475.543L674.378 474.522C676.446 474.446 677.782 474.269 678.375 473.967C678.98 473.677 679.573 473.009 680.166 471.975L681.036 472.328L676.269 484.205L675.399 483.852C675.828 482.44 676.03 481.494 676.017 481.04C676.004 480.574 675.651 480.208 674.97 479.931C674.744 479.842 674.315 479.754 673.672 479.678C673.041 479.603 672.348 479.565 671.604 479.59L666.358 479.653L661.415 491.959C663.988 494.392 665.564 495.867 666.144 496.372C666.724 496.876 667.216 497.216 667.607 497.368C668.388 497.683 669.069 497.582 669.624 497.065C669.965 496.75 670.393 496.056 670.923 494.997L671.793 495.35L668.073 504.605L668.086 504.63ZM664.152 479.691L649.134 479.88L659.839 490.421L664.139 479.691H664.152Z" fill="white"></path><path d="M660.659 419.689C661.605 417.936 662.096 416.94 662.147 416.726C662.248 416.259 662.222 415.793 662.059 415.326C661.895 414.86 661.554 414.481 661.05 414.204L661.277 413.17L672.411 415.15L672.159 416.272C669.826 416.448 667.859 416.902 666.283 417.671C663.307 419.134 661.441 421.555 660.697 424.971C659.94 428.414 660.672 431.528 662.916 434.302C665.16 437.088 668.653 439.004 673.42 440.063C677.808 441.034 681.553 440.656 684.68 438.941C687.807 437.227 689.749 434.604 690.53 431.086C691.098 428.54 691.01 426.068 690.266 423.648C689.849 422.261 689.106 420.685 688.046 418.907L689.156 418.201C690.291 419.588 691.199 421.214 691.88 423.055C693.04 426.194 693.254 429.372 692.548 432.587C691.388 437.87 688.765 441.677 684.705 444.035C680.947 446.204 676.736 446.784 672.07 445.75C667.291 444.691 663.61 442.295 661.025 438.55C658.326 434.617 657.532 430.09 658.654 424.997C659.045 423.219 659.713 421.454 660.659 419.701V419.689Z" fill="white"></path><path d="M697.251 394.951C697.201 392.896 696.911 391.61 696.369 391.093C695.826 390.576 694.49 390.249 692.359 390.135L670.557 388.937C668.741 388.836 667.544 389.051 666.989 389.568C666.421 390.085 666.031 391.308 665.791 393.237L664.858 393.186L665.64 378.876L666.573 378.926C666.573 380.893 666.825 382.179 667.342 382.784C667.871 383.39 669.032 383.743 670.822 383.831L681.124 384.398C678.652 381.158 676.547 378.51 674.807 376.443C671.654 372.736 669.612 370.857 668.653 370.807C667.985 370.769 667.531 371.046 667.279 371.626C667.039 372.206 666.875 373.051 666.825 374.148L665.892 374.097L666.611 360.934L667.544 360.985C667.619 362.599 667.859 363.885 668.262 364.83C668.678 365.776 669.612 367.113 671.074 368.84L679.623 379.153L693.216 367.894C695.662 365.839 697.188 364.44 697.819 363.683C698.436 362.927 698.878 361.792 699.143 360.279L700 360.329L699.155 375.699L698.298 375.648C698.323 374.249 698.26 373.303 698.121 372.811C697.97 372.307 697.655 372.042 697.138 372.017C696.86 372.004 696.419 372.143 695.826 372.421C695.234 372.711 694.54 373.177 693.746 373.82L682.75 382.923L684.1 384.55L693.191 385.054C695.057 385.155 696.255 384.94 696.785 384.398C697.314 383.869 697.718 382.646 697.982 380.767L698.84 380.818L698.058 395.002L697.201 394.951H697.251Z" fill="white"></path><path d="M31.9716 266.348C37.7726 266.348 42.4752 261.646 42.4752 255.845C42.4752 250.045 37.7726 245.343 31.9716 245.343C26.1707 245.343 21.4681 250.045 21.4681 255.845C21.4681 261.646 26.1707 266.348 31.9716 266.348Z" fill="white"></path><path d="M662.374 266.348C668.175 266.348 672.877 261.646 672.877 255.845C672.877 250.045 668.175 245.343 662.374 245.343C656.573 245.343 651.87 250.045 651.87 255.845C651.87 261.646 656.573 266.348 662.374 266.348Z" fill="white"></path></svg>